<mxfile host="app.diagrams.net" modified="2024-02-18T12:59:29.699Z" agent="Mozilla/5.0 (Windows NT 10.0; Win64; x64) AppleWebKit/537.36 (KHTML, like Gecko) Chrome/121.0.0.0 Safari/537.36" version="23.1.5" etag="iW3PIR9bU6iWEJkZpX0w" type="github">
  <diagram name="Page-1" id="0qLVOf093btjK3EtxHdo">
    <mxGraphModel>
      <root>
        <mxCell id="0" />
        <mxCell id="1" parent="0" />
      </root>
    </mxGraphModel>
  </diagram>
</mxfile>
